# xmcd
# 
# Track frame offsets:
#     150
#     11765
#     23625
#     33887
#     43235
#     54492
#     66725
#     76662
#     86947
#     97225
#     106790
#     116877
#     127002
#     136305
#     145925
#     156575
#     168415
#     178727
#     188632
#     198922
#     208760
#     218862
#     228132
#     239137
#     247807
#     258652
#     267785
#     278250
# 
# Disc length: 3858
# 
# Revision: 6
# Processed by: cddbd v1.5.2PL0 Copyright (c) Steve Scherf et al.
# Submitted via: fre:ac v1.0.17
# 
DISCID=9c0f101c
DTITLE=The Johnny Burnette Trio - Rockbilly Boogie
DYEAR=1989
DGENRE=Rockabilly
TTITLE0=Rockbilly Boogie
TTITLE1=Please Don't Leave Me (Alt.)
TTITLE2=Rock Therapy
TTITLE3=Lonesome Train (On A Lonesome Track)
TTITLE4=Sweet Love On My Mind
TTITLE5=My Love, You're A Stranger
TTITLE6=Your Baby Blue Eyes
TTITLE7=I Love You So (Alt.)
TTITLE8=The Train Kept A-Rollin'
TTITLE9=All By Myself
TTITLE10=Drinking Wine Spo-Dee-O-Dee
TTITLE11=Blues Stay Away From Me
TTITLE12=Honey Hush
TTITLE13=Lonesome Tears In My Eyes
TTITLE14=I Just Found Out
TTITLE15=Chains Of Love
TTITLE16=Please Don't Leave Me
TTITLE17=Lonesome Train (On A Lonesome Track) (Alt.)
TTITLE18=I Love You So
TTITLE19=If You Want It Enough
TTITLE20=Butterfingers
TTITLE21=Eager Beaver Baby
TTITLE22=Touch Me
TTITLE23=Tear It Up
TTITLE24=Oh Baby Babe
TTITLE25=You're Undecided
TTITLE26=Midnight Train
TTITLE27=Shattered Dreams
EXTD=
EXTT0=
EXTT1=
EXTT2=
EXTT3=
EXTT4=
EXTT5=
EXTT6=
EXTT7=
EXTT8=
EXTT9=
EXTT10=
EXTT11=
EXTT12=
EXTT13=
EXTT14=
EXTT15=
EXTT16=
EXTT17=
EXTT18=
EXTT19=
EXTT20=
EXTT21=
EXTT22=
EXTT23=
EXTT24=
EXTT25=
EXTT26=
EXTT27=
PLAYORDER=
